<svg width="120" height="127" viewBox="0 0 120 127" fill="none" xmlns="http://www.w3.org/2000/svg">
<path d="M90.6162 75.6203C96.7435 55.6542 95.3393 37.5132 87.4799 35.1013C79.6205 32.6894 68.2821 46.9199 62.1549 66.886C56.0277 86.8521 57.4318 104.993 65.2912 107.405C73.1506 109.817 84.489 95.5864 90.6162 75.6203Z" fill="#303646"/>
<path d="M88.2754 74.9027C94.4027 54.9366 93.4595 36.9371 86.1689 34.6998C78.8782 32.4624 68.0009 46.8344 61.8736 66.8005C55.7464 86.7666 56.6895 104.766 63.9802 107.003C71.2708 109.241 82.1482 94.8688 88.2754 74.9027Z" fill="white"/>
<path d="M86.0745 74.2278C91.49 56.581 90.6566 40.6725 84.213 38.695C77.7694 36.7176 68.1557 49.4201 62.7402 67.067C57.3247 84.7138 58.1581 100.622 64.6018 102.6C71.0454 104.577 80.659 91.8747 86.0745 74.2278Z" fill="#CD2B31"/>
<path d="M83.3354 73.3833C87.7439 59.0178 87.0653 46.0673 81.8197 44.4575C76.574 42.8477 68.7478 53.1883 64.3393 67.5538C59.9307 81.9193 60.6094 94.8698 65.855 96.4796C71.1006 98.0894 78.9269 87.7489 83.3354 73.3833Z" fill="white"/>
<path d="M81.5572 72.0846C85.1433 60.4189 84.597 49.9002 80.3369 48.5907C76.0768 47.2811 69.7162 55.6764 66.13 67.3422C62.5439 79.008 63.0902 89.5266 67.3503 90.8362C71.6104 92.1458 77.971 83.7504 81.5572 72.0846Z" fill="#CD2B31"/>
<path d="M77.8268 71.6957C80.2214 63.8928 79.8525 56.8583 77.0028 55.9838C74.1531 55.1093 69.9017 60.7259 67.5071 68.5288C65.1126 76.3317 65.4815 83.3661 68.3312 84.2406C71.1809 85.1152 75.4323 79.4986 77.8268 71.6957Z" fill="white"/>
<path d="M75.9795 70.3707C77.1892 66.4357 77.0045 62.8875 75.5669 62.4456C74.1294 62.0037 71.9834 64.8354 70.7738 68.7705C69.5641 72.7055 69.7488 76.2537 71.1864 76.6956C72.6239 77.1375 74.7699 74.3058 75.9795 70.3707Z" fill="#CD2B31"/>
<path d="M68.6614 64.8254C67.7974 65.9227 65.202 68.8881 65.2588 69.3899C65.3156 69.8917 68.6723 68.8905 68.8377 68.0297C69.003 67.1689 68.6614 64.8254 68.6614 64.8254Z" fill="#BAB3B4"/>
<path d="M6.88543 36.4289C7.2029 36.3044 11.0714 34.912 11.9447 35.1055C12.5371 35.2707 13.0782 35.5826 13.5182 36.0123C11.0138 37.2692 9.46847 38.0427 8.32779 37.4035C7.73489 37.0688 7.28509 36.8503 7.03281 36.7035C6.78052 36.5566 6.73274 36.4913 6.88543 36.4289Z" fill="white"/>
<path opacity="0.09" d="M6.88549 36.4289C7.20295 36.3044 11.0714 34.912 11.9448 35.1055C11.7005 35.615 8.40551 37.344 7.03286 36.7035C6.8033 36.5657 6.73279 36.4913 6.88549 36.4289Z" fill="#1F1F39"/>
<path d="M5.37718 35.5262C5.68988 35.3991 9.56315 34.0093 10.4317 34.2002C11.0367 34.374 11.5868 34.7002 12.0295 35.1475C9.52518 36.4044 7.96101 37.1557 6.81588 36.5019C6.22552 36.1625 5.77689 35.9476 5.5246 35.8008C5.27232 35.6539 5.22338 35.585 5.37718 35.5262Z" fill="white"/>
<path opacity="0.09" d="M5.37757 35.5262C5.69027 35.3992 9.56354 34.0093 10.4321 34.2002C10.1879 34.7098 8.37373 35.9124 5.52499 35.8008C5.28812 35.6652 5.22377 35.585 5.37757 35.5262Z" fill="#1F1F39"/>
<path d="M3.66942 34.4526C4.32975 34.4106 4.97889 34.2617 5.59148 34.0117L5.61704 34.0039C6.91248 33.498 8.28785 33.0317 8.72397 33.1266C9.37455 33.3376 9.96205 33.7079 10.4331 34.2038C7.92986 35.4643 6.25436 36.0858 5.107 35.4247C4.51664 35.0852 4.06801 34.8704 3.81573 34.7235L3.73723 34.6755C3.56597 34.5719 3.53388 34.5058 3.66942 34.4526Z" fill="white"/>
<path opacity="0.09" d="M3.66942 34.4526C4.32975 34.4106 4.97889 34.2617 5.59148 34.0117L5.61704 34.0039C6.94362 33.5085 8.33916 33.056 8.77528 33.151C8.53101 33.6605 6.06516 34.7419 3.86449 34.7526L3.73834 34.6792C3.56597 34.5719 3.53388 34.5058 3.66942 34.4526Z" fill="#1F1F39"/>
<path d="M1.97249 33.4038C2.28995 33.2793 6.15842 31.8869 7.03065 32.0767C7.6722 32.2833 8.25344 32.6439 8.72358 33.1268C6.21927 34.3837 4.55632 35.0333 3.41484 34.3784C2.82194 34.0437 2.37215 33.8252 2.11986 33.6784C1.86758 33.5315 1.81868 33.4625 1.97249 33.4038Z" fill="white"/>
<path opacity="0.23" d="M1.97303 33.4037C2.29049 33.2792 6.15896 31.8868 7.03119 32.0766C6.78692 32.5861 3.99802 32.9075 2.1204 33.6783C1.89084 33.5405 1.81922 33.4625 1.97303 33.4037Z" fill="#1F1F39"/>
<path d="M5.87682 31.118C5.97092 31.3668 6.12995 31.5859 6.33735 31.7525C7.54153 32.8235 67.377 68.977 67.5282 69.1985C67.5393 69.2351 67.607 69.2344 67.6885 69.2136C67.8021 69.1837 67.9102 69.136 68.0088 69.0723C68.5097 68.7762 69.1232 68.1025 68.4539 67.5035C68.3937 67.4487 68.3292 67.3989 68.2609 67.3546C68.2609 67.3546 8.71744 30.166 7.54141 30.0407C6.60879 29.9411 5.64575 30.3978 5.87682 31.118Z" fill="#543237"/>
<path d="M11.8055 28.3085C11.8364 28.6465 12.3508 32.7262 12.9162 33.4166C13.3323 33.871 13.8566 34.2128 14.4402 34.4103C14.4295 31.6187 14.426 29.875 13.3297 29.1584C12.7608 28.7845 12.3652 28.4816 12.1191 28.3289C11.873 28.1762 11.7869 28.1425 11.8055 28.3085Z" fill="white"/>
<path opacity="0.09" d="M11.8058 28.3084C11.8368 28.6464 12.3512 32.7261 12.9165 33.4165C13.2617 32.9761 13.3084 29.2448 12.1161 28.3179C11.8858 28.1643 11.7873 28.1424 11.8058 28.3084Z" fill="#1F1F39"/>
<path d="M10.3141 27.3688C10.3451 27.7067 10.8594 31.7864 11.4248 32.4768C11.8537 32.9364 12.3935 33.2781 12.9923 33.4692C12.9816 30.6777 12.9383 28.9341 11.8361 28.2114C11.2672 27.8374 10.8716 27.5346 10.6255 27.3818C10.3794 27.2291 10.2967 27.2064 10.3141 27.3688Z" fill="white"/>
<path opacity="0.09" d="M10.3139 27.3687C10.3449 27.7066 10.8592 31.7863 11.4246 32.4768C11.7697 32.0364 12.0157 29.8655 10.6231 27.3745C10.395 27.2283 10.2965 27.2063 10.3139 27.3687Z" fill="#1F1F39"/>
<path d="M8.58213 26.3345C8.84588 26.9405 9.00842 27.5857 9.06328 28.2443C9.06328 28.2443 9.06884 28.2626 9.07218 28.2735C9.20847 29.6535 9.41451 31.092 9.70013 31.4403C10.1826 31.9236 10.7778 32.279 11.4321 32.4746C11.4214 29.683 11.2136 27.8976 10.1114 27.1749C9.54138 26.7973 9.14584 26.4944 8.90452 26.3442L8.82603 26.2962C8.64158 26.1886 8.56912 26.1867 8.58213 26.3345Z" fill="white"/>
<path opacity="0.09" d="M8.58236 26.3344C8.84611 26.9404 9.00865 27.5856 9.06351 28.2443C9.06351 28.2443 9.06907 28.2625 9.0724 28.2735C9.23221 29.6782 9.46096 31.1258 9.74547 31.4704C10.0906 31.0301 9.93243 28.3313 8.94508 26.3718L8.82403 26.2889C8.64181 26.1886 8.56935 26.1867 8.58236 26.3344Z" fill="#1F1F39"/>
<path d="M6.87663 25.2962C6.90867 25.6378 7.42306 29.7175 7.99097 30.4031C8.46446 30.8838 9.04879 31.2408 9.6926 31.4426C9.68186 28.6511 9.49714 26.8627 8.40223 26.1377C7.83332 25.7638 7.43778 25.4609 7.1917 25.3082C6.94561 25.1554 6.86283 25.1327 6.87663 25.2962Z" fill="white"/>
<path opacity="0.23" d="M6.87686 25.2961C6.90891 25.6377 7.4233 29.7173 7.99121 30.403C8.33636 29.9626 7.35483 27.3266 7.19082 25.3044C6.96158 25.1545 6.86306 25.1326 6.87686 25.2961Z" fill="#1F1F39"/>
<path opacity="0.47" d="M5.87695 31.118C5.97105 31.3668 6.13008 31.5859 6.33748 31.7525C7.54166 32.8235 67.3771 68.977 67.5283 69.1985C67.5725 69.265 67.7794 69.21 68.009 69.0723C60.9999 64.5767 11.4409 34.2885 5.87695 31.118Z" fill="#1F1F39"/>
<path d="M65.1089 69.6191C65.0473 70.3486 72.6472 71.6939 73.2416 71.2855L73.2673 71.2777C73.6734 70.8148 69.0489 64.7474 68.6647 64.8363C68.2805 64.9253 68.1032 67.0593 67.5561 68.0562L67.5378 68.0618C66.9887 69.0393 65.1479 69.1042 65.1089 69.6191Z" fill="white"/>
<path opacity="0.22" d="M65.1088 69.6191C65.0472 70.3485 72.6471 71.6938 73.2415 71.2854C71.003 69.5309 68.8184 68.3868 67.5388 68.0654C66.9886 69.0393 65.1478 69.1041 65.1088 69.6191Z" fill="#1F1F39"/>
</svg>
